<?xml version="1.0" encoding="UTF-8"?>
<svg id="camera" xmlns="http://www.w3.org/2000/svg" viewBox="0 0 364.98 261.52">
  <defs>
    <style>
      .cls-1 {
        fill: #0d0d0d;
      }
    </style>
  </defs>
  <path class="cls-1" d="M61.15,124.62c2.11-.26,3.1-.5,4.1-.5,24.37-.02,48.74-.02,73.75-.02-13.59,41.77-5.23,76.99,32.48,101.03,28.71,18.3,58.71,16.35,87.1-2.34,15.95-10.51,26.29-25.6,31.58-43.91,5.19-17.98,3.62-35.79-3.4-53.77h77.82c.13,2.72,.37,5.44,.38,8.15,.03,32.15,.04,64.31,.02,96.46-.02,20.83-10.79,31.76-31.5,31.77-80.41,.04-160.82,.04-241.23,0-20.45-.01-31.01-10.72-31.05-31.28-.05-32.41-.03-64.82-.03-97.24,0-2.58,0-5.15,0-8.35Z"/>
  <path class="cls-1" d="M364.94,116.3c-27.28,0-53.21,.1-79.14-.19-2.2-.02-5-2.19-6.46-4.15-34.83-46.79-96.69-46.97-132.47-.4-1.49,1.94-4.42,3.93-6.7,3.95-25.17,.22-50.33,.07-75.5-.02-.98,0-1.95-.42-3.19-.71,0-9.49-.62-18.84,.14-28.07,1.19-14.3,12.85-24.04,28.48-24.3,15.3-.25,30.63,.21,45.92-.27,3.3-.1,7.44-2.11,9.61-4.61,7.82-8.99,14.64-18.85,22.54-27.76,2.55-2.87,7.23-5.32,11-5.4,22.56-.5,45.15-.5,67.71,0,3.76,.08,8.41,2.59,10.97,5.47,7.75,8.7,14.88,17.98,21.81,27.36,2.98,4.04,6.28,5.35,11.14,5.26,14.53-.27,29.06-.2,43.59-.07,19.14,.18,30.42,11.57,30.54,30.63,.05,7.46,0,14.93,0,23.3ZM99.45,89.3c-.31-5.77-3.5-9.29-9.1-9.44-5.55-.15-9.21,3.1-9.78,8.85-.51,5.16,4.35,10.38,9.51,9.99,5.54-.42,8.9-3.56,9.37-9.39Z"/>
  <path class="cls-1" d="M212.77,228.66c-39.89-.18-71.66-32.05-71.55-71.77,.11-39.56,32.38-71.66,71.94-71.55,39.69,.11,71.51,32.14,71.46,71.94-.05,39.79-32.03,71.56-71.85,71.38Zm58.18-72.11c-.17-31.85-26.11-57.5-58.13-57.47-32.2,.03-58.09,26.21-57.86,58.52,.22,31.94,26.13,57.54,58.13,57.46,32.34-.08,58.03-26.06,57.86-58.5Z"/>
  <path class="cls-1" d="M212.79,206.65c-27.3-.05-49.51-22.17-49.58-49.37-.07-27.48,22.56-50.12,49.94-49.95,27.63,.16,49.65,22.56,49.45,50.31-.2,27.29-22.33,49.06-49.82,49.01Zm35-40.26c-.52-.64-1.49-2.89-2.62-2.97-1.67-.12-3.85,.89-5.1,2.14-5.88,5.88-11.62,11.91-17.16,18.11-1.11,1.24-1.79,3.64-1.4,5.18,.25,1,2.87,2.13,4.31,1.99,7.01-.69,21.87-16.77,21.97-24.46Z"/>
</svg>