<?xml version="1.0" encoding="UTF-8"?>
<svg id="Layer_1" data-name="Layer 1" xmlns="http://www.w3.org/2000/svg" viewBox="0 0 400.59 59.98">
  <defs>
    <style>
      .cls-1 {
        fill: #333;
      }
    </style>
  </defs>
  <path class="cls-1" d="M0,41.43v-7.22c1.2,.28,2.82,.46,4.12,.46,2.87,0,4.86-2.08,4.86-5.23V8.61h9.77V30.69c0,6.94-5,11.67-11.81,11.67-2.41,0-5.14-.37-6.94-.93Z"/>
  <path class="cls-1" d="M51.01,8.61h-14.35l-10.42,33.15h10.05l1.57-5.05h11.9l1.57,5.05h10.05L51.01,8.61Zm-11.2,21.16l3.8-12.87h.46l3.8,12.87h-8.06Z"/>
  <polygon class="cls-1" points="69.11 41.76 69.11 8.61 79.57 8.61 90.45 29.17 90.92 29.17 90.92 8.61 100.04 8.61 100.04 41.76 89.57 41.76 78.69 21.25 78.23 21.25 78.23 41.76 69.11 41.76"/>
  <polygon class="cls-1" points="125.82 41.76 125.82 8.61 135.58 8.61 135.58 33.43 149.89 33.43 149.89 41.76 125.82 41.76"/>
  <polygon class="cls-1" points="158.22 41.76 158.22 8.61 183.73 8.61 183.73 16.3 167.66 16.3 167.66 21.85 182.85 21.85 182.85 28.19 167.66 28.19 167.66 34.07 184.19 34.07 184.19 41.76 158.22 41.76"/>
  <polygon class="cls-1" points="200.39 41.76 190.62 8.61 200.62 8.61 207.8 34.58 208.26 34.58 215.34 8.61 225.43 8.61 215.62 41.76 200.39 41.76"/>
  <rect class="cls-1" x="233.21" y="8.61" width="9.77" height="33.15"/>
  <polygon class="cls-1" points="234.46 5.83 239.69 0 247.61 0 240.94 5.83 234.46 5.83"/>
  <polygon class="cls-1" points="252.83 41.76 252.83 8.61 263.3 8.61 274.18 29.17 274.64 29.17 274.64 8.61 283.76 8.61 283.76 41.76 273.3 41.76 262.42 21.25 261.95 21.25 261.95 41.76 252.83 41.76"/>
  <path class="cls-1" d="M292.5,30.83h9.17c.05,2.78,2.32,4.58,6.3,4.58,3.15,0,5.18-1.16,5.18-3.19,0-2.41-2.73-2.96-6.11-3.43-5.69-.79-14.31-1.48-14.31-10,0-6.57,5.65-10.83,14.4-10.83s14.68,4.72,14.68,11.57h-8.84c0-2.92-2.18-4.58-5.51-4.58-3.1,0-4.95,1.3-4.95,3.15,0,2.5,3.29,2.92,7.13,3.47,5.65,.83,13.29,2.04,13.29,10.05,0,6.57-6.06,10.83-15.32,10.83s-15.09-4.77-15.09-11.62Z"/>
  <polygon class="cls-1" points="331.67 41.76 331.67 8.61 341.43 8.61 341.43 21.53 341.9 21.53 351.02 8.61 362.54 8.61 350.37 24.4 362.68 41.76 351.16 41.76 341.9 27.64 341.43 27.64 341.43 41.76 331.67 41.76"/>
  <polygon class="cls-1" points="379.58 41.76 379.58 30.46 368.05 8.61 378.19 8.61 384.21 21.94 384.67 21.94 390.32 8.61 400.59 8.61 389.34 30.46 389.34 41.76 379.58 41.76"/>
  <polygon class="cls-1" points="380.73 5.83 385.96 0 393.93 0 387.26 5.83 380.73 5.83"/>
  <path class="cls-1" d="M249.01,47.3h-5.54v11.94h3.5v-3.47h2c3.15,0,5.12-1.67,5.12-4.24s-1.95-4.24-5.09-4.24Zm-.4,5.94h-1.63v-3.4h1.63c1.18,0,1.97,.67,1.97,1.7s-.78,1.7-1.97,1.7Z"/>
  <polygon class="cls-1" points="257.06 59.24 257.06 47.3 260.57 47.3 260.57 51.71 264.66 51.71 264.66 47.3 268.18 47.3 268.18 59.24 264.66 59.24 264.66 54.46 260.57 54.46 260.57 59.24 257.06 59.24"/>
  <polygon class="cls-1" points="290.51 59.24 290.51 50.19 286.78 50.19 286.78 47.3 297.77 47.3 297.77 50.19 294.03 50.19 294.03 59.24 290.51 59.24"/>
  <path class="cls-1" d="M315.9,53.27c0-3.7,2.82-6.2,6.7-6.2,2.82,0,5.22,1.58,5.77,3.79l-3.24,.62c-.3-.88-1.37-1.54-2.55-1.54-1.83,0-3.17,1.37-3.17,3.34s1.38,3.39,3.3,3.39c1.52,0,2.77-.93,2.87-2.2l-4.05-.02v-2.07h7.42c.43,4.24-2.25,7.17-6.35,7.17-3.89,0-6.7-2.57-6.7-6.27Z"/>
  <path class="cls-1" d="M339.85,55.04l.13-.03c1.73-.32,3-1.68,3-3.64,0-2.43-1.93-4.07-4.85-4.07h-6.02v11.94h3.52v-3.94h.85l2.97,3.94h3.92l-3.52-4.2Zm-2.33-2.02h-1.88v-3.19h1.88c1.12,0,1.95,.6,1.95,1.58s-.83,1.6-1.95,1.6Z"/>
  <path class="cls-1" d="M366.37,47.3h-5.54v11.94h3.5v-3.47h2c3.15,0,5.12-1.67,5.12-4.24s-1.95-4.24-5.09-4.24Zm-.4,5.94h-1.63v-3.4h1.63c1.18,0,1.97,.67,1.97,1.7s-.78,1.7-1.97,1.7Z"/>
  <polygon class="cls-1" points="374.42 59.24 374.42 47.3 377.93 47.3 377.93 51.71 382.02 51.71 382.02 47.3 385.54 47.3 385.54 59.24 382.02 59.24 382.02 54.46 377.93 54.46 377.93 59.24 374.42 59.24"/>
  <polygon class="cls-1" points="392.48 59.24 392.48 55.17 388.33 47.3 391.98 47.3 394.15 52.11 394.31 52.11 396.35 47.3 400.05 47.3 396 55.17 396 59.24 392.48 59.24"/>
  <path class="cls-1" d="M279.29,46.71c-4.72-.89-8.78,3.16-7.88,7.88,.5,2.64,2.63,4.76,5.26,5.26,4.72,.89,8.78-3.16,7.88-7.88-.5-2.64-2.63-4.76-5.26-5.26Zm-1.31,10.28c-2.07,0-3.75-1.68-3.75-3.75s1.68-3.75,3.75-3.75,3.75,1.68,3.75,3.75-1.68,3.75-3.75,3.75Z"/>
  <path class="cls-1" d="M306.84,46.54c-3.7,0-6.7,3-6.7,6.7s3,6.7,6.7,6.7,6.7-3,6.7-6.7-3-6.7-6.7-6.7Zm0,10.4c-2.07,0-3.75-1.68-3.75-3.75s1.68-3.75,3.75-3.75,3.75,1.68,3.75,3.75-1.68,3.75-3.75,3.75Z"/>
  <path class="cls-1" d="M354.3,47.3h-5.17l-3.75,11.94h3.62l.57-1.82h4.29l.57,1.82h3.62l-3.74-11.94Zm-4.04,7.62l1.37-4.64h.17l1.37,4.64h-2.9Z"/>
  <g>
    <path class="cls-1" d="M280.39,51.87c0-.76,0-1.51,0-2.27,0-.05-.03-.12,.03-.15,.05-.02,.09,.03,.13,.06,.98,.7,1.59,1.65,1.84,2.83,.05,.22,.06,.45,.08,.67,0,.09-.04,.14-.11,.18-.61,.35-1.22,.7-1.84,1.06-.11,.07-.13,.06-.13-.08,0-.77,0-1.54,0-2.32Z"/>
    <path class="cls-1" d="M275.57,54.52c0,.76,0,1.53,0,2.29,0,.04,.02,.1-.03,.12-.04,.02-.07-.03-.11-.05-1.05-.75-1.68-1.77-1.89-3.04-.03-.16-.03-.32-.05-.48,0-.08,.02-.14,.1-.18,.61-.35,1.23-.7,1.84-1.06,.13-.07,.14-.07,.14,.08,0,.77,0,1.54,0,2.31Z"/>
    <path class="cls-1" d="M275.78,55.91c0-.35,0-.7,0-1.05,0-.15,0-.15,.13-.08,.75,.43,1.5,.87,2.25,1.3,.58,.33,1.16,.67,1.74,1,.04,.02,.1,.03,.1,.08,0,.05-.06,.06-.1,.08-1.34,.6-2.67,.58-3.98-.07-.1-.05-.14-.11-.14-.23,0-.35,0-.69,0-1.04Z"/>
    <path class="cls-1" d="M273.5,52.86c.07-.85,.35-1.61,.85-2.3,.34-.47,.75-.85,1.24-1.17,.07-.05,.13-.05,.2,0,.61,.35,1.22,.7,1.82,1.05,.14,.08,.14,.09,0,.17-1.33,.77-2.66,1.54-3.99,2.3-.03,.02-.07,.06-.11,.03-.02-.02-.01-.07-.02-.09Z"/>
    <path class="cls-1" d="M280.18,50.48c0,.35,0,.71,0,1.06,0,.13-.01,.13-.12,.07-1.34-.77-2.69-1.55-4.03-2.33-.03-.02-.07-.02-.07-.06,0-.04,.04-.04,.07-.06,.82-.39,1.68-.52,2.58-.4,.5,.07,.97,.22,1.43,.45,.11,.05,.16,.12,.15,.25,0,.34,0,.68,0,1.02Z"/>
    <path class="cls-1" d="M282.45,53.57c-.1,.99-.47,1.87-1.15,2.62-.28,.31-.59,.57-.94,.79-.07,.05-.13,.05-.2,0-.6-.35-1.21-.7-1.81-1.05-.15-.09-.15-.09,0-.18,1.06-.61,2.13-1.23,3.19-1.84,.26-.15,.51-.3,.77-.44,.04-.02,.08-.07,.12-.04,.04,.03,0,.08,.02,.14Z"/>
  </g>
</svg>