<?xml version="1.0" encoding="UTF-8"?>
<svg id="Layer_1" data-name="Layer 1" xmlns="http://www.w3.org/2000/svg" viewBox="0 0 291.55 26.29">
  <g>
    <path d="M20.76,7.65v11.29c0,1.4-.22,2.58-.67,3.52-.44,.94-1.06,1.7-1.86,2.26-.79,.57-1.73,.97-2.8,1.21-1.07,.24-2.24,.36-3.5,.36h-2.44c-3.24,0-5.63-.59-7.18-1.77s-2.32-2.92-2.32-5.21H6.44c0,.96,.26,1.65,.77,2.07,.52,.42,1.46,.63,2.85,.63h1.15c1.34,0,2.28-.23,2.82-.69,.54-.46,.8-1.25,.8-2.38V7.65h5.94Z"/>
    <path d="M39.61,7.65l9.28,18.64h-6.5l-1.49-3.17h-8.91l-1.49,3.17h-6.47L33.29,7.65h6.31Zm-.59,11.44l-2.57-5.45-2.54,5.45h5.11Z"/>
    <path d="M68.63,7.65h6.41V26.29h-7.36l-8.17-10.72v10.72h-6.41V7.65h7.36l8.17,10.77V7.65Z"/>
    <path d="M103.66,22h13.65v4.28h-20.05V7.65h6.41v14.36Z"/>
    <path d="M128.85,22h13.83v4.28h-20.24V7.65h19.65v4.28h-13.24v2.9h11.94v4.28h-11.94v2.9Z"/>
    <path d="M164.93,7.65h6.47l-9.22,18.64h-6.62l-9.28-18.64h6.47l6.1,12.97,6.1-12.97Z"/>
    <path d="M175.63,7.65h6.41V26.29h-6.41V7.65Z"/>
    <path d="M203.33,7.65h6.41V26.29h-7.36l-8.17-10.72v10.72h-6.41V7.65h7.37l8.17,10.77V7.65Z"/>
    <path d="M227.68,14.83c2.85,0,4.96,.5,6.33,1.51,1.37,1.01,2.06,2.37,2.06,4.08,0,.81-.16,1.57-.48,2.28-.32,.71-.81,1.33-1.47,1.87-.66,.54-1.5,.96-2.52,1.26-1.02,.31-2.23,.46-3.64,.46h-4.49c-1.57,0-2.89-.17-3.96-.5-1.07-.33-1.94-.77-2.61-1.32-.67-.55-1.15-1.2-1.44-1.94s-.43-1.54-.43-2.38h6.41c0,.61,.17,1.07,.53,1.39s.95,.47,1.79,.47h3.9c.68,0,1.19-.09,1.52-.29,.33-.19,.5-.52,.5-1,0-.25-.03-.47-.09-.67s-.18-.37-.34-.51c-.17-.14-.4-.25-.7-.32s-.69-.11-1.16-.11h-3.84c-1.55,0-2.86-.15-3.95-.45-1.08-.3-1.96-.7-2.63-1.21-.67-.51-1.16-1.11-1.47-1.81s-.46-1.43-.46-2.2c0-.86,.2-1.64,.6-2.35s.98-1.32,1.73-1.83c.75-.51,1.67-.91,2.75-1.19s2.29-.42,3.64-.42h3.43c1.55,0,2.86,.16,3.95,.48s1.97,.76,2.66,1.32,1.19,1.21,1.5,1.94c.31,.73,.46,1.52,.46,2.36h-6.34c0-.73-.22-1.21-.67-1.46s-1.06-.37-1.84-.37h-3.37c-.66,0-1.18,.11-1.55,.32-.37,.21-.56,.56-.56,1.04s.2,.85,.59,1.13c.39,.27,1.04,.41,1.95,.41h3.71Z"/>
    <path d="M254.94,15.2l9.31,11.09h-7.21l-6.13-7.43-3.16,2.92v4.5h-6.41V7.65h6.41v7.77l8.29-7.77h7.15l-8.26,7.55Z"/>
    <path d="M285.05,7.65h6.5l-9.28,11.41v7.23h-6.37v-7.23l-9.25-11.41h6.5l5.94,7.38,5.97-7.38Z"/>
  </g>
  <polygon points="182.04 5.96 175.63 5.96 178.84 0 185.24 0 182.04 5.96"/>
  <polyline points="274.29 5.98 277.49 .02 283.9 .02 280.7 5.98"/>
</svg>